<svg width="26" height="26" viewBox="0 0 26 26" fill="none" xmlns="http://www.w3.org/2000/svg">
<g clip-path="url(#clip0_974_2602)">
<path d="M4.29166 21.9322C3.09778 20.7791 2.1455 19.3998 1.49039 17.8748C0.835278 16.3497 0.49045 14.7095 0.476027 13.0497C0.461605 11.39 0.777876 9.74398 1.40639 8.20778C2.0349 6.67157 2.96306 5.27593 4.13672 4.10227C5.31038 2.92861 6.70603 2.00044 8.24223 1.37193C9.77844 0.743422 11.4244 0.42715 13.0842 0.441573C14.7439 0.455996 16.3842 0.800824 17.9092 1.45594C19.4343 2.11105 20.8136 3.06333 21.9667 4.2572C24.2436 6.61473 25.5036 9.77226 25.4751 13.0497C25.4466 16.3272 24.132 19.4623 21.8144 21.7799C19.4968 24.0975 16.3616 25.4121 13.0842 25.4406C9.80671 25.4691 6.64919 24.2092 4.29166 21.9322ZM14.8792 13.0947L18.4167 9.5572L16.6542 7.7947L13.1292 11.3322L9.59166 7.7947L7.82916 9.5572L11.3667 13.0947L7.82916 16.6322L9.59166 18.3947L13.1292 14.8572L16.6667 18.3947L18.4292 16.6322L14.8917 13.0947H14.8792Z" fill="black"/>
</g>
<defs>
<clipPath id="clip0_974_2602">
<rect width="25" height="25" fill="white" transform="translate(0.62915 0.594727)"/>
</clipPath>
</defs>
</svg>
