<svg width="208" height="53" viewBox="0 0 208 53" fill="none" xmlns="http://www.w3.org/2000/svg">
<path d="M23.0779 31.2999C23.0506 31.2727 23.0097 31.2455 22.9823 31.2184C21.6441 31.8295 20.2922 32.4407 18.8447 33.1062C19.8416 33.731 20.7428 34.3014 21.6987 34.899C22.1767 33.663 22.6273 32.4815 23.0779 31.2999ZM11.5936 51.4955C12.4949 51.3733 13.3278 51.2918 14.1472 51.1288C16.3457 50.6942 18.4077 49.9336 20.1283 48.4804C21.5622 47.2717 22.641 45.8185 22.9277 43.9171C23.1326 42.5997 22.996 41.3366 22.163 40.1414C21.8353 40.5217 21.5075 40.902 21.2071 41.2822C20.5653 42.0836 19.9508 42.8984 19.0086 43.3602C18.8037 43.4553 18.5852 43.5232 18.3804 43.6047C18.3531 43.5775 18.3121 43.5503 18.2848 43.5096C18.476 43.0207 18.6399 42.5317 18.8584 42.0564C19.2544 41.1872 19.6777 40.318 20.101 39.4488C20.3878 38.8512 20.3195 38.6339 19.7869 38.2536C18.3121 37.2214 16.851 36.1756 15.3898 35.1163C14.7753 34.6817 14.0926 34.4779 13.3688 34.7496C11.9077 35.2792 10.4465 35.7953 9.03999 36.4337C8.35721 36.746 7.75637 37.2757 7.21015 37.7918C6.02211 38.8919 4.91601 40.0735 3.72797 41.1736C3.30465 41.5675 2.75843 41.8119 2.25317 42.0971C2.17124 42.1379 2.03468 42.0836 1.92544 42.0836C1.95275 41.9885 1.95275 41.8663 2.02103 41.7983C2.84036 40.7118 3.67335 39.6253 4.50634 38.5388C4.73849 38.2264 4.98429 37.914 5.24374 37.5609C4.79311 37.3979 4.38344 37.2621 3.89184 37.0856C4.21957 36.6238 4.53365 36.1892 4.87504 35.7003C3.19541 34.6409 1.5977 33.6087 0 32.5765C0.327734 31.7481 1.13341 31.3406 2.14393 31.4628C2.93595 31.5579 3.71432 31.7345 4.50634 31.7888C6.22694 31.8975 7.93389 31.9518 9.6545 32.0061C10.269 32.0197 10.3782 31.7752 10.0915 31.2455C9.76374 30.6615 9.42235 30.0911 9.09462 29.5071C8.13873 27.8094 7.94755 26.0031 8.42549 24.1424C9.24483 20.9372 10.9245 18.2073 13.1094 15.7491C15.2396 13.3452 17.8069 11.4845 20.4561 9.69175C23.2828 7.79035 26.246 6.10625 29.3595 4.68019C33.0328 2.98251 36.8154 1.5972 40.7619 0.660078C42.9058 0.143982 45.0907 -0.0733214 47.2893 0.0217489C48.805 0.0896563 50.2798 0.374867 51.6727 1.0132C54.2263 2.1812 55.4417 4.5308 54.8545 7.27425C54.4311 9.22998 53.4343 10.8869 52.2189 12.4352C50.7168 14.3638 48.887 15.9528 46.9206 17.3924C46.7431 17.5283 46.5246 17.6098 46.2788 17.7456C46.2105 17.2702 46.0739 16.8628 46.1149 16.4825C46.1422 16.2109 46.347 15.8849 46.5792 15.7083C48.2452 14.4045 49.7336 12.9649 50.8807 11.1857C51.6044 10.0585 52.2463 8.89045 52.5603 7.55946C53.0246 5.56299 52.4238 4.1641 50.6349 3.1319C49.2557 2.3306 47.7536 2.03181 46.1832 1.97748C42.9605 1.86883 39.8333 2.42567 36.7881 3.45786C31.9814 5.07405 27.3931 7.19276 23.0643 9.85473C20.2785 11.5796 17.602 13.4538 15.3079 15.8034C13.8604 17.2702 12.5631 18.8728 11.8667 20.8421C10.9245 23.5041 11.4707 25.9624 13.0411 28.244C13.3415 28.6786 13.6829 29.0861 14.0243 29.4935C14.4476 29.9825 14.8026 30.064 15.4035 29.8059C17.8342 28.7466 20.2649 27.6872 22.6956 26.6278C22.8458 26.5599 22.996 26.492 23.1462 26.4105C23.829 26.0031 24.0884 25.5277 23.87 24.7672C23.6515 24.0066 23.3784 23.2596 22.996 22.567C22.3405 21.3854 21.5758 20.2717 20.8657 19.1173C20.7838 18.9951 20.7155 18.8592 20.6199 18.6963C21.1935 18.5061 21.7124 18.4518 22.2859 18.6419C24.3069 19.3074 26.1095 20.3396 27.8028 21.5891C28.0895 21.8064 28.3763 22.0237 28.6767 22.241C29.2776 22.6621 29.8921 22.7435 30.5748 22.4312C32.9373 21.3175 35.2997 20.2038 37.6621 19.1037C38.6999 18.6148 39.7104 18.0851 40.8712 17.8814C41.868 17.7048 42.8512 17.7184 43.8208 17.9357C44.5035 18.0851 44.6128 18.3296 44.367 18.9679C43.889 20.1902 42.9058 20.8965 41.827 21.5212C39.1232 23.0695 36.4467 24.6585 33.7293 26.1797C32.0223 27.1304 30.7387 28.4885 29.6053 30.0368C27.9939 32.2234 26.3689 34.3964 24.7303 36.5695C24.3342 37.0992 24.225 37.6017 24.5254 38.2264C25.099 39.4216 25.4677 40.6982 25.5223 42.0428C25.6042 44.243 24.7576 46.1172 23.2281 47.6384C20.2649 50.5856 16.7144 52.4598 12.5222 52.9623C11.539 53.0845 10.5148 52.8808 9.5316 52.7586C8.94441 52.6907 8.61667 52.2561 8.50743 51.6856C8.39818 51.1152 8.56205 50.572 9.06731 50.3139C9.7774 49.9472 10.5421 49.6484 11.3205 49.4311C11.9623 49.2546 12.4129 49.7978 12.1944 50.4226C12.0306 50.7621 11.8121 51.0609 11.5936 51.4955Z" fill="#D71920"/>
<path d="M203.093 42.6353C203.493 43.4631 204.189 43.877 205.129 43.877C205.947 43.877 206.625 43.6356 207.165 43.1699C207.704 42.7043 207.983 42.2559 207.983 41.842C207.983 41.3936 207.791 41.1522 207.391 41.1522C207.217 41.1522 206.991 41.2039 206.695 41.2902C206.451 41.3764 206.225 41.4109 206.051 41.4109C205.616 41.4109 205.251 39.8933 204.92 36.8753C204.59 33.909 203.476 32.4259 201.579 32.4259C199.387 32.4259 197.403 34.4954 195.629 38.6171C196.098 36.3924 196.325 34.9093 196.325 34.1332C196.325 33.1157 196.203 32.4949 195.942 32.2534C195.681 32.012 195.315 31.9085 194.846 31.9085C194.463 31.9085 194.115 32.1327 193.784 32.5639C193.454 32.995 193.28 33.4089 193.28 33.7883C193.28 36.3234 193.123 38.4619 192.792 40.2209C192.549 41.5833 192.427 42.4456 192.427 42.825C192.427 43.946 193.053 44.5151 194.289 44.5151C194.48 44.5151 194.689 44.4116 194.88 44.2047C195.089 43.9977 195.211 43.739 195.298 43.4286C195.629 42.3939 196.533 40.79 197.978 38.6343C199.422 36.4614 200.448 35.3921 201.04 35.3921C201.666 35.3921 202.067 36.4269 202.241 38.5136C202.432 40.5313 202.71 41.911 203.093 42.6353ZM186.354 33.9263C186.546 34.1677 186.633 34.4954 186.633 34.892C186.633 36.1682 185.919 37.6513 184.51 39.3586C183.101 41.066 181.9 41.911 180.943 41.911C180.665 41.911 180.525 41.5833 180.525 40.9108C180.525 39.6346 181.187 38.0997 182.509 36.2889C183.831 34.4781 184.91 33.5641 185.745 33.5641C185.954 33.5641 186.163 33.6848 186.354 33.9263ZM188.547 44.929C188.999 44.929 189.452 44.791 189.869 44.5151C190.287 44.2392 190.496 43.8942 190.496 43.4803C190.496 43.2044 190.339 42.9975 190.008 42.8423C189.678 42.687 189.486 42.5491 189.417 42.4284C189.347 42.2904 189.243 42.0145 189.104 41.6006C188.964 41.1694 188.895 40.4451 188.895 39.4104C188.895 38.4101 189.051 37.065 189.382 35.3921C189.556 34.4954 189.643 33.8745 189.643 33.5469C189.643 32.8226 189.173 32.4776 188.234 32.4776C187.92 31.4774 187.259 30.9773 186.267 30.9773C184.301 30.9773 182.352 32.2017 180.404 34.6333C178.472 37.065 177.498 39.3586 177.498 41.5143C177.498 42.4111 177.759 43.1354 178.298 43.7218C178.838 44.2909 179.464 44.5841 180.212 44.5841C182.213 44.5841 184.301 43.1699 186.459 40.3589C186.302 43.3941 186.998 44.929 188.547 44.929ZM171.46 37.5651C171.06 39.5483 170.868 41.2384 170.868 42.6181C170.868 44.2392 171.408 45.0497 172.487 45.0497C172.904 45.0497 173.287 44.8945 173.635 44.5668C173.983 44.2564 174.174 43.9977 174.174 43.808C174.174 43.7045 174.157 43.5838 174.14 43.4459C173.966 42.6181 173.879 41.9455 173.879 41.4626C173.879 40.859 173.931 40.0485 174.018 39.0655C174.105 38.0825 174.383 36.789 174.836 35.2197L174.905 34.9438C175.201 33.9263 175.358 33.2537 175.358 32.926C175.358 32.5984 175.201 32.3052 174.888 32.0465C174.575 31.7878 174.14 31.6498 173.583 31.6498C173.113 31.6498 172.73 31.8568 172.469 32.2534C172.208 32.6673 172.069 33.1675 172.069 33.7711C172.069 33.978 171.93 34.823 171.669 36.3062V36.2889C171.617 36.7028 171.547 37.134 171.46 37.5651ZM177.115 25.1655C176.767 24.8378 176.332 24.6826 175.775 24.6826C175.079 24.6826 174.522 24.8551 174.157 25.2172C173.774 25.5794 173.583 26.045 173.583 26.6314C173.583 27.0453 173.774 27.4419 174.157 27.8558C174.54 28.2697 174.975 28.4594 175.462 28.4594C175.845 28.4594 176.297 28.2352 176.837 27.8041C177.359 27.3729 177.62 26.8556 177.62 26.2865C177.62 25.8553 177.446 25.4759 177.115 25.1655ZM164.291 42.2214C163.438 42.4629 162.638 42.5836 161.872 42.5836C161.594 42.5836 161.298 42.5318 160.968 42.3939C160.637 42.2732 160.393 42.2214 160.237 42.2214C159.854 42.2214 159.506 42.3594 159.193 42.6353C158.88 42.9112 158.723 43.2389 158.723 43.6356C158.723 44.7048 159.471 45.2394 160.95 45.2394C162.969 45.2394 164.796 44.8428 166.414 44.0495C168.032 43.2562 168.85 42.2732 168.85 41.0832C168.85 40.4279 168.624 39.8415 168.171 39.3069C167.719 38.7723 166.779 38.1687 165.37 37.4961C164.413 37.0477 163.769 36.6683 163.456 36.3752C163.143 36.082 162.986 35.7716 162.986 35.4611C162.986 34.8058 163.421 34.2367 164.308 33.7538C165.179 33.2709 165.996 33.0295 166.71 33.0295C166.831 33.0295 167.006 33.0812 167.232 33.202C167.458 33.3227 167.615 33.3744 167.719 33.3744C167.945 33.3744 168.206 33.2537 168.519 32.995C168.833 32.7363 168.989 32.4604 168.989 32.15C168.989 30.96 168.293 30.3564 166.919 30.3564C165.509 30.3564 163.995 30.891 162.36 31.9775C160.724 33.0467 159.924 34.3057 159.924 35.7543C159.924 36.4441 160.15 37.065 160.62 37.6513C161.089 38.2377 162.168 38.9275 163.856 39.738C165.231 40.3761 165.944 40.9108 165.979 41.3419C165.683 41.6696 165.126 41.98 164.291 42.2214ZM150.267 36.4959C150.354 35.9268 150.458 35.4266 150.597 35.0127C150.963 33.8056 151.154 33.0123 151.154 32.6329C151.154 32.3397 151.032 32.0637 150.806 31.8051C150.58 31.5464 150.249 31.4257 149.797 31.4257C149.379 31.4257 148.996 31.5464 148.648 31.8223C148.3 32.081 148.092 32.3569 147.987 32.6501C147.9 32.9433 147.813 33.4951 147.744 34.2884C147.726 34.4954 147.691 34.7713 147.657 35.1335C147.5 36.5131 147.413 37.6686 147.378 38.6171C147.343 39.6346 147.326 40.4279 147.326 41.0142C147.326 42.4629 147.448 43.4976 147.691 44.1357C147.935 44.7738 148.335 45.1014 148.892 45.1014C149.431 45.1014 149.849 44.9635 150.162 44.6875C150.475 44.4116 150.684 43.9287 150.771 43.2562C151.067 40.8935 151.937 38.755 153.381 36.8753C154.825 34.9783 155.852 34.0297 156.478 34.0297C156.652 34.0297 156.879 34.1677 157.174 34.4264C157.592 34.8403 158.062 35.0472 158.566 35.0472C158.88 35.0472 159.141 34.9093 159.315 34.6333C159.489 34.3574 159.593 34.0125 159.593 33.6331C159.593 33.0123 159.332 32.4604 158.793 32.012C158.253 31.5636 157.575 31.3222 156.739 31.3222C155.643 31.3222 154.53 31.943 153.381 33.1675C152.233 34.3919 151.171 35.9957 150.18 37.979L149.971 38.3756L150.267 36.4959ZM138.313 34.7541C139.183 33.7193 139.966 33.202 140.679 33.202C140.923 33.202 141.114 33.2882 141.271 33.4779C141.427 33.6676 141.497 33.8918 141.497 34.1505C141.497 34.8403 141.01 35.5991 140.018 36.4269C139.026 37.2719 137.878 37.8065 136.59 38.0652C136.869 36.8925 137.443 35.7888 138.313 34.7541ZM144.107 39.4104C143.811 39.4104 143.498 39.5656 143.202 39.8933C141.584 41.5833 139.948 42.4111 138.295 42.4111C137.721 42.4111 137.251 42.2387 136.903 41.8765C136.555 41.5143 136.381 41.1522 136.381 40.7555C136.381 40.5141 136.503 40.3761 136.747 40.3072C138.887 39.8243 140.644 38.9447 142.019 37.6513C143.394 36.3752 144.072 35.03 144.072 33.6159C144.072 32.8226 143.794 32.1327 143.237 31.5636C142.68 30.9945 141.949 30.7013 141.027 30.7013C139.183 30.7013 137.443 31.7016 135.825 33.6848C134.206 35.6853 133.389 37.8065 133.389 40.083C133.389 41.6178 133.789 42.825 134.589 43.7045C135.39 44.5668 136.468 44.998 137.86 44.998C139.67 44.998 141.288 44.4116 142.715 43.2389C144.159 42.0662 144.873 41.0487 144.873 40.2037C144.855 39.6863 144.594 39.4104 144.107 39.4104ZM128.186 33.978C128.343 34.2022 128.412 34.5644 128.412 35.0645C128.412 36.5821 127.734 38.1342 126.394 39.7553C125.037 41.3764 123.853 42.1869 122.809 42.1869C122.427 42.1869 122.096 42.0662 121.818 41.8593C121.539 41.6351 121.4 41.3764 121.4 41.1004C121.4 39.9967 122.2 38.4791 123.801 36.5476C125.402 34.6161 126.69 33.6503 127.699 33.6503C127.855 33.6331 128.029 33.7538 128.186 33.978ZM122.287 44.6875C124.288 44.6875 126.324 43.6183 128.377 41.4626C130.431 39.3069 131.457 36.927 131.457 34.3057C131.457 33.3227 131.127 32.5121 130.483 31.8568C129.839 31.2015 129.056 30.8738 128.134 30.8738C127.125 30.8738 125.959 31.3912 124.671 32.4087C123.384 33.4261 122.27 34.7023 121.33 36.2544L121.452 35.4094C121.661 34.0815 121.765 33.1502 121.765 32.5984C121.765 31.236 121.313 30.5634 120.426 30.5634C119.886 30.5634 119.486 30.7013 119.19 30.9773C118.894 31.2532 118.72 31.5809 118.668 31.943C118.599 32.3052 118.581 33.0295 118.581 34.116V34.3574C118.459 39.5656 117.798 44.5841 116.58 49.4128C116.371 50.2751 116.267 51.0339 116.267 51.6893C116.267 52.0169 116.441 52.3274 116.772 52.6033C117.102 52.8792 117.45 53.0172 117.833 53.0172C118.251 53.0172 118.581 52.862 118.877 52.5688C119.155 52.2756 119.347 51.7238 119.451 50.9477L120.043 46.1534C120.182 44.998 120.321 44.1357 120.46 43.5666C120.721 44.3081 121.33 44.6875 122.287 44.6875ZM101.094 33.9263C101.286 34.1677 101.373 34.4954 101.373 34.892C101.373 36.1682 100.659 37.6513 99.2498 39.3586C97.8404 41.066 96.6398 41.911 95.6828 41.911C95.4044 41.911 95.2652 41.5833 95.2652 40.9108C95.2652 39.6346 95.9264 38.0997 97.2488 36.2889C98.5712 34.4781 99.65 33.5641 100.485 33.5641C100.711 33.5641 100.92 33.6848 101.094 33.9263ZM103.287 44.929C103.739 44.929 104.191 44.791 104.609 44.5151C105.027 44.2392 105.235 43.8942 105.235 43.4803C105.235 43.2044 105.079 42.9975 104.748 42.8423C104.418 42.687 104.226 42.5491 104.157 42.4284C104.087 42.2904 103.983 42.0145 103.843 41.6006C103.704 41.1694 103.635 40.4451 103.635 39.4104C103.635 38.4101 103.791 37.065 104.122 35.3921C104.313 34.4954 104.4 33.8745 104.4 33.5296C104.4 32.8053 103.93 32.4604 102.991 32.4604C102.678 31.4601 102.016 30.96 101.025 30.96C99.0584 30.96 97.1096 32.1845 95.1608 34.6161C93.2294 37.0477 92.255 39.3414 92.255 41.4971C92.255 42.3939 92.516 43.1182 93.0554 43.7045C93.5948 44.2736 94.2212 44.5668 94.9694 44.5668C96.9704 44.5668 99.0584 43.1527 101.216 40.3416C101.059 43.3941 101.755 44.929 103.287 44.929ZM86.4434 42.6353C86.861 43.4631 87.5396 43.877 88.4792 43.877C89.297 43.877 89.9756 43.6356 90.515 43.1699C91.0544 42.7043 91.3328 42.2559 91.3328 41.842C91.3328 41.3936 91.1414 41.1522 90.7412 41.1522C90.5672 41.1522 90.341 41.2039 90.0452 41.2902C89.8016 41.3764 89.5754 41.4109 89.384 41.4109C88.949 41.4109 88.5836 39.8933 88.253 36.8753C87.9224 33.909 86.8088 32.4259 84.9122 32.4259C82.7198 32.4259 80.7362 34.4954 78.9613 38.6171C79.4311 36.3924 79.6573 34.9093 79.6573 34.1332C79.6573 33.1157 79.5355 32.4949 79.2745 32.2534C79.0135 32.012 78.6481 31.9085 78.1783 31.9085C77.7955 31.9085 77.4475 32.1327 77.0995 32.5639C76.7689 32.995 76.5949 33.4089 76.5949 33.7883C76.5949 36.3234 76.4383 38.4619 76.1077 40.2209C75.8641 41.5833 75.7423 42.4456 75.7423 42.825C75.7423 43.946 76.3687 44.5151 77.6215 44.5151C77.8129 44.5151 78.0217 44.4116 78.2131 44.2047C78.4045 43.9977 78.5437 43.739 78.6307 43.4286C78.9613 42.3939 79.8661 40.79 81.3103 38.6343C82.7546 36.4786 83.7812 35.3921 84.3728 35.3921C84.9992 35.3921 85.3994 36.4269 85.5734 38.5136C85.7822 40.5313 86.078 41.911 86.4434 42.6353ZM69.7045 33.9263C69.8959 34.1677 69.9829 34.4954 69.9829 34.892C69.9829 36.1682 69.2695 37.6513 67.8601 39.3586C66.4507 41.066 65.2501 41.911 64.2931 41.911C64.0147 41.911 63.8755 41.5833 63.8755 40.9108C63.8755 39.6346 64.5367 38.0997 65.8591 36.2889C67.1815 34.4781 68.2603 33.5641 69.0955 33.5641C69.3043 33.5641 69.5131 33.6848 69.7045 33.9263ZM71.8969 44.929C72.3493 44.929 72.8017 44.791 73.2193 44.5151C73.6369 44.2392 73.8457 43.8942 73.8457 43.4803C73.8457 43.2044 73.6891 42.9975 73.3585 42.8423C73.0279 42.687 72.8365 42.5491 72.7669 42.4284C72.6973 42.2904 72.5929 42.0145 72.4537 41.6006C72.3145 41.1694 72.2449 40.4451 72.2449 39.4104C72.2449 38.4101 72.4015 37.065 72.7321 35.3921C72.9061 34.4954 72.9931 33.8745 72.9931 33.5469C72.9931 32.8226 72.5233 32.4776 71.5837 32.4776C71.2705 31.4774 70.6093 30.9773 69.6175 30.9773C67.6513 30.9773 65.7025 32.2017 63.7711 34.6333C61.8397 37.065 60.8653 39.3586 60.8653 41.5143C60.8653 42.4111 61.1263 43.1354 61.6657 43.7218C62.2051 44.2909 62.8315 44.5841 63.5797 44.5841C65.5807 44.5841 67.6687 43.1699 69.8263 40.3589C69.6697 43.3941 70.3483 44.929 71.8969 44.929ZM59.6125 29.1665C59.6125 28.4594 59.2123 27.8386 58.4119 27.304C57.6115 26.7693 56.5153 26.4934 55.1407 26.4934C52.7221 26.4934 50.6341 27.1487 48.8419 28.4594C47.0497 29.7701 46.1623 31.1842 46.1623 32.7018C46.1623 33.5641 46.3885 34.2884 46.8583 34.892C47.3281 35.4956 48.0067 35.9957 48.8941 36.3579C49.7989 36.7373 51.1387 37.2029 52.9135 37.7893C54.1315 38.1859 54.9493 38.5136 55.3495 38.7895C55.7497 39.0655 55.9411 39.3242 55.9411 39.6173C55.9411 40.3072 55.1407 40.997 53.5573 41.704C51.9565 42.4111 50.5297 42.7733 49.2421 42.7733C48.4939 42.7733 47.6935 42.5836 46.8235 42.2214C46.6669 42.1524 46.4755 42.1179 46.2841 42.1179C45.9709 42.1179 45.6925 42.2904 45.4663 42.6353C45.2401 42.9802 45.1183 43.3596 45.1183 43.7735C45.1183 44.2909 45.3793 44.722 45.8839 45.0669C46.3885 45.4119 47.0671 45.5843 47.9197 45.5843C50.5123 45.5843 53.0179 44.929 55.4365 43.6356C57.8551 42.3249 59.0557 40.8935 59.0557 39.3242C59.0557 38.3756 58.5859 37.5823 57.6289 36.9098C56.6893 36.2372 55.2277 35.6163 53.2789 35.0645C51.4171 34.5299 50.2687 34.0815 49.8163 33.7193C49.3639 33.3572 49.1377 32.926 49.1377 32.4087C49.1377 31.5981 49.7293 30.8566 50.9125 30.2012C52.0957 29.5459 53.3833 29.201 54.7753 29.201C55.5931 29.201 56.2021 29.3562 56.6197 29.6666C57.0373 29.977 57.2461 30.5461 57.2461 31.3394C58.8121 31.3049 59.6125 30.5979 59.6125 29.1665Z" fill="#D71920"/>
</svg>
