<svg width="46" height="47" viewBox="0 0 46 47" fill="none" xmlns="http://www.w3.org/2000/svg">
<rect x="0.621582" y="0.889282" width="45.2354" height="45.1426" rx="4" fill="#FF0000"/>
<path d="M41.0202 39.3264L31.3716 29.6184C33.4378 27.1503 34.6815 23.9675 34.6815 20.4919C34.6815 12.6488 28.3575 6.29102 20.515 6.29102C12.6724 6.29102 6.3147 12.6488 6.3147 20.4913C6.3147 28.3338 12.6725 34.6916 20.515 34.6916C24.0948 34.6916 27.356 33.3634 29.8455 31.1778L39.4771 40.87C39.9031 41.296 40.5942 41.296 41.0196 40.87C41.4462 40.4434 41.4462 39.7529 41.0202 39.3263L41.0202 39.3264ZM20.4966 32.4728C13.8982 32.4728 8.49661 27.0712 8.49661 20.4728C8.49661 13.8745 13.8982 8.47289 20.4966 8.47289C27.0949 8.47289 32.4965 13.8745 32.4965 20.4728C32.4965 27.0712 27.0949 32.4728 20.4966 32.4728ZM25.9511 19.3819H21.5875V15.0183C21.5875 14.4161 21.0987 13.9274 20.4966 13.9274C19.8944 13.9274 19.4057 14.4161 19.4057 15.0183V19.3819H15.042C14.4399 19.3819 13.9511 19.8707 13.9511 20.4728C13.9511 21.075 14.4399 21.5637 15.042 21.5637H19.4057V25.9274C19.4057 26.5295 19.8944 27.0183 20.4966 27.0183C21.0987 27.0183 21.5875 26.5295 21.5875 25.9274V21.5637H25.9511C26.5533 21.5637 27.042 21.075 27.042 20.4728C27.042 19.8707 26.5538 19.3819 25.9511 19.3819Z" fill="white"/>
</svg>
