<svg width="46" height="46" viewBox="0 0 46 46" fill="none" xmlns="http://www.w3.org/2000/svg">
<rect x="0.322998" y="0.309082" width="45.2354" height="45.1426" rx="4" fill="#FF0000"/>
<path d="M39.93 38.2819L30.3958 28.6891C32.4375 26.2502 33.6664 23.1052 33.6664 19.6707C33.6664 11.9206 27.4174 5.63818 19.6678 5.63818C11.9182 5.63818 5.63586 11.9206 5.63586 19.6702C5.63586 27.4197 11.9183 33.7021 19.6678 33.7021C23.2052 33.7021 26.4278 32.3897 28.8877 30.23L38.4051 39.8072C38.8261 40.2282 39.509 40.2282 39.9294 39.8072C40.3509 39.3857 40.3509 38.7034 39.93 38.2819L39.93 38.2819ZM19.6496 31.5096C13.1295 31.5096 7.79191 26.172 7.79191 19.6519C7.79191 13.1318 13.1295 7.7942 19.6496 7.7942C26.1697 7.7942 31.5073 13.1318 31.5073 19.6519C31.5073 26.172 26.1697 31.5096 19.6496 31.5096ZM25.0395 18.5739H14.2598C13.6647 18.5739 13.1818 19.0569 13.1818 19.6519C13.1818 20.2469 13.6647 20.7299 14.2598 20.7299H25.0395C25.6345 20.7299 26.1175 20.2469 26.1175 19.6519C26.1175 19.0569 25.6351 18.5739 25.0395 18.5739Z" fill="white"/>
</svg>
